<?xml version="1.0" standalone="no"?>
<!DOCTYPE svg PUBLIC "-//W3C//DTD SVG 20010904//EN"
 "http://www.w3.org/TR/2001/REC-SVG-20010904/DTD/svg10.dtd">
<svg version="1.0" xmlns="http://www.w3.org/2000/svg"
 width="1000.000000pt" height="1000.000000pt" viewBox="0 0 1000.000000 1000.000000"
 preserveAspectRatio="xMidYMid meet">
<metadata>
Created by potrace 1.14, written by Peter Selinger 2001-2017
</metadata>
<g transform="translate(0.000000,1000.000000) scale(0.100000,-0.100000)"
fill="#000000" stroke="none">
<path d="M5614 7559 c-100 -13 -191 -71 -239 -153 -17 -30 -167 -521 -200
-656 -2 -8 -40 -143 -85 -300 -45 -157 -84 -292 -86 -300 -2 -8 -13 -46 -24
-85 -12 -38 -23 -77 -25 -85 -2 -8 -38 -134 -80 -280 -42 -146 -78 -272 -80
-280 -2 -8 -22 -80 -45 -160 -23 -80 -43 -152 -45 -160 -2 -8 -41 -141 -85
-295 -45 -154 -83 -287 -85 -295 -2 -8 -30 -109 -63 -225 -52 -180 -76 -265
-88 -310 -2 -5 -19 -66 -39 -135 -20 -69 -45 -156 -56 -195 -11 -38 -29 -99
-40 -135 -10 -36 -60 -209 -110 -385 -83 -292 -91 -326 -86 -387 8 -127 87
-234 204 -278 135 -50 289 -4 373 112 29 39 40 71 104 288 26 87 544 1903 551
1930 2 8 25 87 50 175 25 88 66 230 90 315 24 85 146 511 270 945 125 435 228
797 230 805 2 8 12 40 21 70 27 91 29 186 5 251 -52 137 -196 227 -337 208z"/>
<path d="M3238 6445 c-2 -2 -21 -6 -43 -9 -98 -15 -114 -29 -730 -645 -662
-662 -648 -644 -651 -781 -5 -150 -38 -108 640 -788 672 -674 649 -655 786
-659 135 -3 240 59 299 178 28 55 30 69 28 147 -2 76 -6 94 -32 140 -21 36
-171 193 -490 512 l-459 460 457 457 c464 466 497 500 497 525 0 8 6 20 13 26
8 9 12 46 12 110 0 86 -3 103 -27 148 -28 53 -104 128 -148 147 -27 11 -147
36 -152 32z"/>
<path d="M6652 6418 c-66 -25 -140 -95 -173 -163 -20 -41 -24 -66 -24 -135 0
-140 -9 -129 518 -657 l461 -463 -457 -457 c-251 -252 -466 -471 -477 -488
-76 -114 -63 -282 31 -388 38 -44 117 -91 169 -103 76 -16 181 4 245 46 17 11
295 284 618 607 657 657 640 637 644 772 1 53 -4 89 -19 130 -19 52 -59 95
-622 659 -672 674 -650 655 -786 659 -55 1 -89 -4 -128 -19z"/>
</g>
</svg>
